<svg width="104" height="378" viewBox="0 0 104 378" fill="none" xmlns="http://www.w3.org/2000/svg">
<path d="M52.1165 51.4318C54.4738 51.4318 56.4925 50.5917 58.1726 48.9116C59.8527 47.2315 60.6913 45.2143 60.6884 42.8598C60.6884 40.5025 59.8484 38.4838 58.1683 36.8037C56.4882 35.1236 54.4709 34.285 52.1165 34.2879C49.7592 34.2879 47.7405 35.1279 46.0604 36.808C44.3803 38.4881 43.5417 40.5054 43.5445 42.8598C43.5445 45.2171 44.3846 47.2358 46.0647 48.9159C47.7448 50.596 49.762 51.4347 52.1165 51.4318ZM52.1165 94.2916C40.6158 84.5053 32.0266 75.4162 26.3491 67.0242C20.6716 58.6322 17.8315 50.8632 17.8286 43.717C17.8286 33.0021 21.276 24.4658 28.1707 18.1083C35.0654 11.7507 43.0473 8.57196 52.1165 8.57196C61.1885 8.57196 69.1718 11.7507 76.0666 18.1083C82.9613 24.4658 86.4072 33.0021 86.4044 43.717C86.4044 50.8603 83.5642 58.6294 77.8838 67.0242C72.2035 75.419 63.6143 84.5082 52.1165 94.2916Z" fill="#6B716C"/>
<path d="M52.1166 372.756C50.9022 372.756 49.8836 372.346 49.0607 371.526C48.2378 370.706 47.8277 369.687 47.8306 368.47V364.184C38.9015 363.184 31.2396 359.488 24.8449 353.096C18.4502 346.704 14.7542 339.042 13.757 330.11H9.47104C8.25668 330.11 7.23947 329.699 6.41942 328.876C5.59937 328.053 5.18792 327.036 5.18506 325.824C5.18506 324.61 5.59651 323.591 6.41942 322.768C7.24233 321.945 8.25954 321.535 9.47104 321.538H13.757C14.7571 312.609 18.4545 304.947 24.8492 298.553C31.2438 292.158 38.9043 288.462 47.8306 287.465V283.179C47.8306 281.964 48.242 280.947 49.065 280.127C49.8879 279.307 50.9051 278.896 52.1166 278.893C53.3309 278.893 54.3496 279.304 55.1725 280.127C55.9954 280.95 56.4054 281.967 56.4026 283.179V287.465C65.3317 288.465 72.9936 292.162 79.3883 298.557C85.783 304.952 89.4789 312.612 90.4761 321.538H94.7621C95.9765 321.538 96.9951 321.95 97.818 322.773C98.6409 323.596 99.051 324.613 99.0481 325.824C99.0481 327.039 98.6381 328.057 97.818 328.88C96.998 329.703 95.9793 330.113 94.7621 330.11H90.4761C89.4761 339.039 85.7801 346.701 79.3883 353.096C72.9965 359.491 65.3346 363.187 56.4026 364.184V368.47C56.4026 369.684 55.9911 370.703 55.1682 371.526C54.3453 372.349 53.3281 372.759 52.1166 372.756ZM52.1166 355.826C60.4028 355.826 67.4747 352.897 73.3322 347.04C79.1897 341.182 82.1185 334.11 82.1185 325.824C82.1185 317.538 79.1897 310.466 73.3322 304.609C67.4747 298.751 60.4028 295.822 52.1166 295.822C43.8303 295.822 36.7585 298.751 30.901 304.609C25.0434 310.466 22.1147 317.538 22.1147 325.824C22.1147 334.11 25.0434 341.182 30.901 347.04C36.7585 352.897 43.8303 355.826 52.1166 355.826ZM52.1166 342.968C47.402 342.968 43.366 341.29 40.0087 337.932C36.6513 334.575 34.9726 330.539 34.9726 325.824C34.9726 321.11 36.6513 317.074 40.0087 313.716C43.366 310.359 47.402 308.68 52.1166 308.68C56.8312 308.68 60.8671 310.359 64.2245 313.716C67.5818 317.074 69.2605 321.11 69.2605 325.824C69.2605 330.539 67.5818 334.575 64.2245 337.932C60.8671 341.29 56.8312 342.968 52.1166 342.968Z" fill="#6B716C"/>
<line x1="52.2059" y1="95.6829" x2="52.2059" y2="272.328" stroke="#6C6C70" stroke-width="14.7204" stroke-dasharray="8.57 8.57"/>
</svg>
